<svg xmlns="http://www.w3.org/2000/svg" width="20.529" height="20.527" viewBox="0 0 20.529 20.527"><g transform="translate(-1176.159 -1423.998)"><path d="M6.94,0a8.082,8.082,0,0,1,5.676,2.62,8.544,8.544,0,0,1,1.709,5.015L0,7.631a8.683,8.683,0,0,1,1.882-5.1A6.928,6.928,0,0,1,6.94,0Z" transform="translate(1176.159 1434.13) rotate(-45)" fill="#817c8f"/><path d="M6.94,0a8.082,8.082,0,0,1,5.676,2.62,8.544,8.544,0,0,1,1.709,5.015L0,7.631a8.683,8.683,0,0,1,1.882-5.1A6.928,6.928,0,0,1,6.94,0Z" transform="translate(1196.688 1434.396) rotate(135)" fill="#f7f7f7"/><g transform="translate(1179 1426.831)" fill="none" stroke="#141414" stroke-width="1"><circle cx="7.5" cy="7.5" r="7.5" stroke="none"/><circle cx="7.5" cy="7.5" r="7" fill="none"/></g><line x1="10" y2="10" transform="translate(1181.5 1429.331)" fill="none" stroke="#141414" stroke-width="1"/></g></svg>