<?xml version="1.0" encoding="utf-8"?>
<svg version="1.1" id="Layer_1" xmlns="http://www.w3.org/2000/svg" xmlns:xlink="http://www.w3.org/1999/xlink" x="0px" y="0px" viewBox="0 0 127 100" style="enable-background:new 0 0 127 100;" xml:space="preserve">
    <defs>
        <style>
            .st0{fill:#F1F2F2;}
            .st1{fill:#F58220;}
            .st2{fill:url(#SVGID_1_);}
            .st3{fill:#001722;}
            .st4{fill:#231F20;}
        </style>
    </defs>
    <g>
        <path class="st0" d="M126.2,85.2c0,2.3-1.9,4.2-4.2,4.2H5c-2.3,0-4.2-1.9-4.2-4.2v-70c0-2.3,1.9-4.2,4.2-4.2H122c2.3,0,4.2,1.9,4.2,4.2V85.2z"/>
        <path class="st1" d="M35.3,89.3H122c2.3,0,4.2-1.9,4.2-4.2V55.8C117.9,61.1,86.5,79.3,35.3,89.3z"/>
        <g>
            <radialGradient id="SVGID_1_" cx="58.6089" cy="-435.9425" r="6.1806" gradientTransform="matrix(1 0 0 1 6.416 486.083)" gradientUnits="userSpaceOnUse">
                <stop offset="5.618000e-03" style="stop-color:#FFEEE0"/>
                <stop offset="0.1096" style="stop-color:#FEE9D7"/>
                <stop offset="0.2793" style="stop-color:#FDDBBF"/>
                <stop offset="0.4935" style="stop-color:#FBC597"/>
                <stop offset="0.744" style="stop-color:#F8A560"/>
                <stop offset="1" style="stop-color:#F48120"/>
            </radialGradient>
            <path class="st2" d="M65,44c-3.5,0-6.3,2.7-6.3,6c0,3.5,2.7,6.2,6.3,6.2c3.5,0,6.2-2.7,6.2-6.1C71.3,46.7,68.5,44,65,44z"/>
            <path class="st3" d="M29.5,44.2h-3.4V56h3.3c1.8,0,3.1-0.4,4.2-1.4c1.3-1.1,2.1-2.8,2.1-4.5C35.8,46.7,33.2,44.2,29.5,44.2z M32.2,53.1C31.5,53.7,30.5,54,29,54h-0.6v-7.8H29c1.5,0,2.4,0.3,3.1,0.9c0.8,0.7,1.3,1.8,1.3,2.9C33.4,51.2,33,52.4,32.2,53.1z"/>
            <rect x="36.9" y="44.2" class="st3" width="2.3" height="11.7"/>
            <path class="st3" d="M44.7,48.8c-1.4-0.5-1.8-0.8-1.8-1.5c0-0.7,0.7-1.3,1.7-1.3c0.7,0,1.2,0.3,1.8,0.9l1.2-1.6c-1-0.9-2.2-1.3-3.5-1.3c-2.1,0-3.7,1.4-3.7,3.4c0,1.6,0.7,2.4,2.9,3.2c0.9,0.3,1.4,0.5,1.6,0.7c0.5,0.3,0.7,0.7,0.7,1.2c0,1-0.8,1.7-1.8,1.7c-1.1,0-2-0.5-2.5-1.6L40,54c1.1,1.5,2.3,2.2,4.1,2.2c2.4,0,4-1.6,4-3.9C48.1,50.5,47.3,49.7,44.7,48.8z"/>
            <path class="st3" d="M48.8,50.1c0,3.5,2.7,6.1,6.2,6.1c1,0,1.8-0.2,2.9-0.7v-2.7c-0.9,0.9-1.7,1.3-2.8,1.3c-2.3,0-3.9-1.7-3.9-4c0-2.2,1.7-4,3.8-4c1.1,0,1.9,0.4,2.9,1.3v-2.7c-1-0.5-1.8-0.7-2.8-0.7C51.6,44,48.8,46.7,48.8,50.1z"/>
            <polygon class="st3" points="76.5,52.1 73.3,44.2 70.8,44.2 75.8,56.3 77,56.3 82.1,44.2 79.6,44.2"/>
            <polygon class="st3" points="83.1,56 89.6,56 89.6,54 85.4,54 85.4,50.8 89.5,50.8 89.5,48.8 85.4,48.8 85.4,46.2 89.6,46.2 89.6,44.2 83.1,44.2"/>
            <path class="st3" d="M98.7,47.7c0-2.2-1.5-3.5-4.2-3.5h-3.4V56h2.3v-4.7h0.3l3.2,4.7h2.8L96,51C97.8,50.7,98.7,49.5,98.7,47.7z M94.1,49.7h-0.7v-3.6h0.7c1.4,0,2.2,0.6,2.2,1.7C96.3,49,95.6,49.7,94.1,49.7z"/>
            <path class="st4" d="M100.3,45.1c0-0.2-0.1-0.3-0.4-0.3h-0.3v1h0.2v-0.4l0.3,0.4h0.3l-0.3-0.4C100.2,45.4,100.3,45.3,100.3,45.1z M99.9,45.3L99.9,45.3l0-0.3h0c0.1,0,0.2,0,0.2,0.1C100.1,45.2,100,45.3,99.9,45.3z"/>
            <path class="st4" d="M100,44.4c-0.5,0-0.9,0.4-0.9,0.9c0,0.5,0.4,0.9,0.9,0.9c0.5,0,0.9-0.4,0.9-0.9S100.5,44.4,100,44.4z M100,46.1c-0.4,0-0.7-0.3-0.7-0.7c0-0.4,0.3-0.7,0.7-0.7c0.4,0,0.7,0.3,0.7,0.7C100.7,45.7,100.4,46.1,100,46.1z"/>
        </g>
    </g>
</svg>
